<svg xmlns="http://www.w3.org/2000/svg" viewBox="0 0 300 200">
  <!-- Background with gradient -->
  <defs>
    <linearGradient id="bg-gradient" x1="0%" y1="0%" x2="100%" y2="100%">
      <stop offset="0%" style="stop-color:#fdf2f8;stop-opacity:1" />
      <stop offset="100%" style="stop-color:#fbcfe8;stop-opacity:1" />
    </linearGradient>
  </defs>
  
  <rect width="300" height="200" fill="url(#bg-gradient)" rx="10" ry="10"/>
  
  <!-- Dance Party Figure -->
  <g transform="translate(150, 100)">
    <!-- Head -->
    <circle cx="0" cy="-55" r="15" fill="#ec4899"/>
    
    <!-- Body -->
    <line x1="0" y1="-40" x2="0" y2="0" stroke="#ec4899" stroke-width="8" stroke-linecap="round"/>
    
    <!-- Arms - Dynamic Dancing Position -->
    <line x1="0" y1="-30" x2="-30" y2="-45" stroke="#ec4899" stroke-width="6" stroke-linecap="round"/>
    <line x1="0" y1="-30" x2="35" y2="-20" stroke="#ec4899" stroke-width="6" stroke-linecap="round"/>
    
    <!-- Legs - Dynamic Dancing Position -->
    <line x1="0" y1="0" x2="-20" y2="40" stroke="#ec4899" stroke-width="8" stroke-linecap="round"/>
    <line x1="0" y1="0" x2="25" y2="35" stroke="#ec4899" stroke-width="8" stroke-linecap="round"/>
  </g>
  
  <!-- Music Notes -->
  <g transform="translate(75, 50)">
    <path d="M0,0 Q5,-10 10,0 T20,0" stroke="#6366f1" stroke-width="2" fill="none"/>
    <circle cx="20" cy="0" r="5" fill="#6366f1"/>
  </g>
  
  <g transform="translate(225, 60)">
    <path d="M0,0 Q5,-10 10,0 T20,0" stroke="#6366f1" stroke-width="2" fill="none"/>
    <circle cx="20" cy="0" r="5" fill="#6366f1"/>
  </g>
  
  <g transform="translate(200, 150)">
    <path d="M0,0 Q5,-10 10,0 T20,0" stroke="#6366f1" stroke-width="2" fill="none"/>
    <circle cx="20" cy="0" r="5" fill="#6366f1"/>
  </g>
  
  <g transform="translate(100, 130)">
    <path d="M0,0 Q5,-10 10,0 T20,0" stroke="#6366f1" stroke-width="2" fill="none"/>
    <circle cx="20" cy="0" r="5" fill="#6366f1"/>
  </g>
  
  <text x="150" y="180" text-anchor="middle" font-family="Arial" font-size="14" font-weight="bold" fill="#be185d">Dance Party</text>
</svg>
